<svg xmlns="http://www.w3.org/2000/svg" viewBox="0 0 64 64" fill="none">
  <!-- Heart shape -->
  <path d="M32 58S4 40 4 22a14 14 0 0 1 28-2 14 14 0 0 1 28 2C60 40 32 58 32 58Z" fill="#D97706" stroke="#92400E" stroke-width="2"/>
  <!-- Chihuahua silhouette -->
  <g transform="translate(16,14) scale(0.55)">
    <path d="M29 4c-3-3-8-4-11-2s-4 6-3 10c-5 2-9 7-10 13-1 8 2 16 8 21h2c1 0 2 0 3-1l4 3c2 1 4 1 5 0l4-3c1 1 2 1 3 1h2c6-5 9-13 8-21-1-6-5-11-10-13 1-4 0-8-3-10s-8-1-11 2Z" fill="white"/>
    <circle cx="20" cy="26" r="2.5" fill="#92400E"/>
    <circle cx="38" cy="26" r="2.5" fill="#92400E"/>
    <ellipse cx="29" cy="33" rx="4" ry="3" fill="#92400E"/>
  </g>
</svg>
